<?xml version="1.0" encoding="utf-8"?>
<!-- Generator: Adobe Illustrator 23.0.1, SVG Export Plug-In . SVG Version: 6.00 Build 0)  -->
<svg version="1.1" id="Layer_1" xmlns="http://www.w3.org/2000/svg" xmlns:xlink="http://www.w3.org/1999/xlink" x="0px" y="0px"
	 viewBox="0 0 100 100" style="enable-background:new 0 0 100 100;" xml:space="preserve">
<g>
	<g>
		<path d="M9.1,48.7H4.8v-3.5h12.5v3.5h-4.3v11.9h-4V48.7z"/>
		<path d="M50.5,51.3v9.3h-4V45.3h4.1l6.2,8.8v-8.8h4v15.4H57L50.5,51.3z"/>
		<path d="M68.6,45.3h4v15.4h-4V45.3z"/>
		<path d="M79.6,53c0-4.7,3.6-7.9,8.2-7.9c3.8,0,5.8,2.1,6.8,4.1l-3.4,1.6c-0.5-1.2-1.8-2.2-3.4-2.2c-2.4,0-4.2,1.9-4.2,4.4
			c0,2.5,1.8,4.4,4.2,4.4c1.6,0,2.9-1,3.4-2.2l3.4,1.6c-1,2-3,4.1-6.8,4.1C83.2,60.9,79.6,57.7,79.6,53z"/>
	</g>
	<g>
		<path d="M29.2,50.9c1.7,0,3.2,1.4,3.2,3.2s-1.4,3.2-3.2,3.2c-1.7,0-3.2-1.4-3.2-3.2S27.5,50.9,29.2,50.9 M29.2,47.6
			c-3.6,0-6.5,2.9-6.5,6.5c0,3.6,2.9,6.5,6.5,6.5c3.6,0,6.5-2.9,6.5-6.5C35.8,50.5,32.8,47.6,29.2,47.6L29.2,47.6z"/>
		<path d="M39.2,45.6c1.1,0,1.9,0.9,1.9,1.9s-0.9,1.9-1.9,1.9s-1.9-0.9-1.9-1.9S38.2,45.6,39.2,45.6 M39.2,44.1
			c-1.9,0-3.5,1.6-3.5,3.5c0,1.9,1.6,3.5,3.5,3.5s3.5-1.6,3.5-3.5C42.7,45.6,41.2,44.1,39.2,44.1L39.2,44.1z"/>
		<path d="M32.4,41.3c0.7,0,1.2,0.5,1.2,1.2s-0.5,1.2-1.2,1.2s-1.2-0.5-1.2-1.2S31.7,41.3,32.4,41.3 M32.4,40
			c-1.4,0-2.5,1.1-2.5,2.5c0,1.4,1.1,2.5,2.5,2.5s2.5-1.1,2.5-2.5C34.9,41.1,33.8,40,32.4,40L32.4,40z"/>
	</g>
</g>
</svg>
