<?xml version="1.0" encoding="utf-8"?>
<!-- Generator: Adobe Illustrator 23.0.1, SVG Export Plug-In . SVG Version: 6.00 Build 0)  -->
<svg version="1.1" id="Layer_1" xmlns="http://www.w3.org/2000/svg" xmlns:xlink="http://www.w3.org/1999/xlink" x="0px" y="0px"
	 viewBox="0 0 1500 350" style="enable-background:new 0 0 1500 350;" xml:space="preserve">
<style type="text/css">
	.st0{fill:#231F20;}
	@media(prefers-color-scheme:dark){.st0{fill:#F0F6FC;}}
</style>
<g>
	<g>
		<path class="st0" d="M374.24,159.44h-39.81V127.5h116.04v31.94h-39.6v110.07h-36.62V159.44z"/>
		<path class="st0" d="M756.63,183.71v85.8h-36.62V127.5h37.69l57.49,81.76V127.5h36.83v142.01h-35.34L756.63,183.71z"/>
		<path class="st0" d="M924.41,127.5h36.62v142.01h-36.62V127.5z"/>
		<path class="st0" d="M1026.18,198.61c0-43.86,33.21-73.45,75.8-73.45c35.34,0,53.65,19.37,63.02,38.11l-31.51,14.9
			c-4.68-11.28-16.82-20.65-31.51-20.65c-22.14,0-38.54,17.88-38.54,41.09c0,23.21,16.39,41.09,38.54,41.09
			c14.69,0,26.83-9.37,31.51-20.65l31.51,14.9c-9.16,18.31-27.68,38.11-63.02,38.11C1059.4,272.07,1026.18,242.26,1026.18,198.61z"
			/>
	</g>
	<g>
		<path class="st0" d="M560.27,179.84c16.16,0,29.31,13.15,29.31,29.31s-13.15,29.31-29.31,29.31c-16.16,0-29.31-13.15-29.31-29.31
			S544.11,179.84,560.27,179.84 M560.27,148.81c-33.33,0-60.35,27.02-60.35,60.35c0,33.33,27.02,60.35,60.35,60.35
			c33.33,0,60.35-27.02,60.35-60.35C620.62,175.83,593.6,148.81,560.27,148.81L560.27,148.81z"/>
		<path class="st0" d="M652.81,131.05c9.79,0,17.75,7.96,17.75,17.75c0,9.79-7.96,17.75-17.75,17.75s-17.75-7.96-17.75-17.75
			C635.06,139.02,643.02,131.05,652.81,131.05 M652.81,116.62c-17.78,0-32.19,14.41-32.19,32.19c0,17.78,14.41,32.19,32.19,32.19
			c17.78,0,32.19-14.41,32.19-32.19C684.99,131.03,670.58,116.62,652.81,116.62L652.81,116.62z"/>
		<path class="st0" d="M589.59,90.73c6.21,0,11.26,5.05,11.26,11.26s-5.05,11.26-11.26,11.26c-6.21,0-11.26-5.05-11.26-11.26
			S583.38,90.73,589.59,90.73 M589.59,78.83c-12.79,0-23.17,10.37-23.17,23.17s10.37,23.17,23.17,23.17
			c12.79,0,23.17-10.37,23.17-23.17S602.38,78.83,589.59,78.83L589.59,78.83z"/>
	</g>
</g>
</svg>
